<?xml version="1.0" encoding="UTF-8" standalone="no"?>
<!-- Created with Inkscape (http://www.inkscape.org/) -->

<svg
   version="1.1"
   id="svg39415"
   width="800"
   height="800"
   viewBox="0 0 800 800"
   sodipodi:docname="hamburger-vector-pdv.svg"
   inkscape:version="1.2 (dc2aedaf03, 2022-05-15)"
   xmlns:inkscape="http://www.inkscape.org/namespaces/inkscape"
   xmlns:sodipodi="http://sodipodi.sourceforge.net/DTD/sodipodi-0.dtd"
   xmlns="http://www.w3.org/2000/svg"
   xmlns:svg="http://www.w3.org/2000/svg">
  <defs
     id="defs39419">
    <clipPath
       clipPathUnits="userSpaceOnUse"
       id="clipPath39431">
      <path
         d="M 0,600 H 600 V 0 H 0 Z"
         id="path39429" />
    </clipPath>
  </defs>
  <sodipodi:namedview
     id="namedview39417"
     pagecolor="#ffffff"
     bordercolor="#000000"
     borderopacity="0.25"
     inkscape:showpageshadow="2"
     inkscape:pageopacity="0.0"
     inkscape:pagecheckerboard="0"
     inkscape:deskcolor="#d1d1d1"
     showgrid="false"
     inkscape:zoom="1.04625"
     inkscape:cx="400"
     inkscape:cy="400.4779"
     inkscape:window-width="1920"
     inkscape:window-height="1017"
     inkscape:window-x="-8"
     inkscape:window-y="-8"
     inkscape:window-maximized="1"
     inkscape:current-layer="g39423">
    <inkscape:page
       x="0"
       y="0"
       id="page39421"
       width="800"
       height="800" />
  </sodipodi:namedview>
  <g
     id="g39423"
     inkscape:groupmode="layer"
     inkscape:label="Page 1"
     transform="matrix(1.3333333,0,0,-1.3333333,0,800)">
    <g
       id="g39425">
      <g
         id="g39427"
         clip-path="url(#clipPath39431)">
        <g
           id="g39433"
           transform="translate(297.3623,151.7461)">
          <path
             d="M 0,0 C 103.106,0 187.2,15.902 187.2,35.4 187.2,54.898 103.106,70.801 0,70.801 -103.106,70.801 -187.2,54.898 -187.2,35.4 -187.2,15.902 -103.106,0 0,0"
             style="fill:#f5f3c3;fill-opacity:1;fill-rule:evenodd;stroke:none"
             id="path39435" />
        </g>
        <g
           id="g39437"
           transform="translate(301.0771,428.8892)">
          <path
             d="m 0,0 c 103.581,0 187.55,-63.268 187.55,-141.313 0,-26.777 -9.885,-51.815 -27.056,-73.154 -15.305,-19.024 -36.32,-29.088 -60.736,-29.088 H -99.757 c -24.417,0 -45.43,10.064 -60.737,29.088 -17.17,21.339 -27.055,46.377 -27.055,73.154 C -187.549,-63.268 -103.58,0 0,0"
             style="fill:#fab40a;fill-opacity:1;fill-rule:evenodd;stroke:none"
             id="path39439" />
        </g>
        <g
           id="g39441"
           transform="translate(301.0771,428.8892)">
          <path
             d="m 0,0 c 103.581,0 187.55,-63.268 187.55,-141.313 0,-26.777 -9.885,-51.815 -27.056,-73.154 -15.305,-19.024 -36.32,-29.088 -60.736,-29.088 H 71.306 c 17.452,0 32.472,10.064 43.413,29.088 12.272,21.339 19.339,46.377 19.339,73.154 C 134.058,-63.269 74.038,0 0,0"
             style="fill:#f2a50f;fill-opacity:1;fill-rule:evenodd;stroke:none"
             id="path39443" />
        </g>
        <g
           id="g39445"
           transform="translate(301.0771,428.8892)">
          <path
             d="m 0,0 c 103.581,0 187.55,-63.268 187.55,-141.313 0,-26.777 -9.885,-51.815 -27.056,-73.154 -15.305,-19.024 -36.32,-29.088 -60.736,-29.088 H 85.826 c 21.006,0 39.085,10.064 52.253,29.088 14.773,21.339 23.278,46.377 23.278,73.154 C 161.357,-63.269 89.115,0 0,0"
             style="fill:#eb9313;fill-opacity:1;fill-rule:evenodd;stroke:none"
             id="path39447" />
        </g>
        <g
           id="g39449"
           transform="translate(255.1616,416.8892)">
          <path
             d="m 0,0 c 34.647,0 54.715,-15.396 44.824,-34.388 -9.85,-18.911 -45.955,-28.397 -77.252,-28.458 -31.5,-0.061 -58.129,9.425 -48.216,28.458 C -70.752,-15.396 -34.647,0 0,0"
             style="fill:#f9de1c;fill-opacity:1;fill-rule:evenodd;stroke:none"
             id="path39451" />
        </g>
        <g
           id="g39453"
           transform="translate(303.0498,327.9238)">
          <path
             d="m 0,0 c 33.731,0.01 201.49,1.357 199.644,-47.986 -0.393,-10.52 -7.359,-33.018 -20.277,-33.018 -4.07,0 -7.799,1.506 -10.689,4.004 -1.784,-7.465 -8.334,-13.004 -16.143,-13.004 -5.137,0 -9.729,2.397 -12.779,6.162 l -0.487,-0.086 c -2.291,-6.625 -8.441,-11.371 -15.668,-11.371 -5.118,0 -9.693,2.379 -12.743,6.119 -2.879,-5.093 -8.241,-8.519 -14.381,-8.519 -5.5,0 -10.374,2.746 -13.4,6.978 -2.909,-4.963 -8.201,-8.283 -14.247,-8.283 -5.98,0 -11.223,3.248 -14.151,8.123 l -0.105,-0.002 c -2.891,-5.039 -8.224,-8.422 -14.326,-8.422 -5.574,0 -10.507,2.823 -13.523,7.153 -3.033,-4.161 -7.866,-6.852 -13.309,-6.852 -5.941,0 -11.153,3.207 -14.094,8.027 -2.97,-4.654 -8.088,-7.726 -13.906,-7.726 -5.753,0 -10.822,3.006 -13.807,7.576 -3.007,-4.4 -7.981,-7.277 -13.608,-7.277 -5.518,0 -10.407,2.767 -13.431,7.023 -3.038,-3.394 -7.394,-5.523 -12.235,-5.523 -5.386,0 -10.174,2.636 -13.212,6.722 -3.049,-3.742 -7.626,-6.121 -12.745,-6.121 -6.129,0 -11.483,3.41 -14.365,8.489 -3.046,-3.551 -7.502,-5.79 -12.468,-5.79 -5.694,0 -10.719,2.946 -13.715,7.436 -2.861,-2.396 -6.513,-3.836 -10.492,-3.836 -6.065,0 -11.371,3.34 -14.275,8.33 -2.886,-2.484 -6.604,-3.98 -10.662,-3.98 -6.318,0 -11.812,3.627 -14.625,8.966 -1.511,-0.464 -3.112,-0.716 -4.77,-0.716 -16.587,0 -16.508,15.588 -16.598,27.599 C -205.99,2.905 -36.332,-0.01 0,0"
             style="fill:#87b027;fill-opacity:1;fill-rule:evenodd;stroke:none"
             id="path39455" />
        </g>
        <g
           id="g39457"
           transform="translate(427.752,320.8169)">
          <path
             d="m 0,0 c 41.1,-6.335 75.787,-18.296 74.942,-40.879 -0.393,-10.52 -7.359,-33.018 -20.277,-33.018 -4.07,0 -7.799,1.506 -10.69,4.004 -1.783,-7.465 -8.333,-13.004 -16.142,-13.004 -5.137,0 -9.73,2.396 -12.779,6.162 -0.162,-0.027 -0.326,-0.057 -0.488,-0.086 C 24.432,-43.03 18.911,-17.792 0,0"
             style="fill:#779c2a;fill-opacity:1;fill-rule:evenodd;stroke:none"
             id="path39459" />
        </g>
        <g
           id="g39461"
           transform="translate(454.8809,315.4526)">
          <path
             d="m 0,0 c 28.111,-7.078 48.463,-18.156 47.813,-35.515 -0.393,-10.52 -7.359,-33.018 -20.277,-33.018 -4.07,0 -7.799,1.506 -10.689,4.004 C 27.303,-44.177 23.987,-12.104 0,0"
             style="fill:#66862a;fill-opacity:1;fill-rule:evenodd;stroke:none"
             id="path39463" />
        </g>
        <g
           id="g39465"
           transform="translate(307.0049,264.584)">
          <path
             d="M 0,0 C 87.494,0 158.854,10.184 158.854,22.668 158.854,35.154 87.494,45.337 0,45.337 -87.494,45.337 -158.854,35.154 -158.854,22.668 -158.854,10.184 -87.494,0 0,0"
             style="fill:#f9de1c;fill-opacity:1;fill-rule:evenodd;stroke:none"
             id="path39467" />
        </g>
        <g
           id="g39469"
           transform="translate(303.1338,301.3228)">
          <path
             d="m 0,0 c 118.176,0 213.976,6.581 213.976,-23.038 0,-29.619 -95.8,-23.039 -213.976,-23.039 -118.175,0 -213.975,-9.14 -213.975,23.039 C -213.975,9.141 -118.175,0 0,0"
             style="fill:#602e15;fill-opacity:1;fill-rule:evenodd;stroke:none"
             id="path39471" />
        </g>
        <g
           id="g39473"
           transform="translate(429.8193,301.7358)">
          <path
             d="M 0,0 C 52.934,-0.961 87.29,-5.716 87.29,-23.451 87.29,-40.996 53.673,-45.837 1.707,-46.871 16.386,-39.996 18.082,-7.828 0,0"
             style="fill:#442515;fill-opacity:1;fill-rule:evenodd;stroke:none"
             id="path39475" />
        </g>
        <g
           id="g39477"
           transform="translate(471.2734,299.6733)">
          <path
             d="M 0,0 C 28.705,-2.814 45.836,-8.865 45.836,-21.388 45.836,-33.451 29.944,-39.509 3.127,-42.453 18.266,-33.406 12.46,-5.648 0,0"
             style="fill:#301c14;fill-opacity:1;fill-rule:evenodd;stroke:none"
             id="path39479" />
        </g>
        <g
           id="g39481"
           transform="translate(167.2305,283.1465)">
          <path
             d="m 0,0 c 31.273,0 56.78,3.092 56.78,6.881 0,3.789 -25.507,6.881 -56.78,6.881 -31.273,0 -56.779,-3.092 -56.779,-6.881 C -56.779,3.092 -31.273,0 0,0"
             style="fill:#8d401c;fill-opacity:1;fill-rule:evenodd;stroke:none"
             id="path39483" />
        </g>
        <g
           id="g39485"
           transform="translate(337.8613,299.0171)">
          <path
             d="m 0,0 c -4.556,0 -8.249,-3.693 -8.249,-8.25 0,-4.556 3.693,-8.25 8.249,-8.25 4.557,0 8.25,3.694 8.25,8.25 C 8.25,-3.693 4.557,0 0,0 m -23.716,-20.339 c -2.982,0 -5.4,-2.418 -5.4,-5.401 0,-2.982 2.418,-5.4 5.4,-5.4 2.983,0 5.401,2.418 5.401,5.4 0,2.983 -2.418,5.401 -5.401,5.401 M -36,-1.771 c -2.071,0 -3.749,-1.678 -3.749,-3.75 0,-2.07 1.678,-3.75 3.749,-3.75 2.071,0 3.75,1.68 3.75,3.75 0,2.072 -1.679,3.75 -3.75,3.75 M 38.551,6.33 -3.208,-32.488 c -5.998,-5.576 -13.21,-8.168 -21.384,-7.687 -8.175,0.48 -15.033,3.9 -20.337,10.138 l -9.333,10.981 c 2.937,1.699 4.912,4.875 4.912,8.512 0,5.425 -4.399,9.824 -9.825,9.824 -3.066,0 -5.805,-1.405 -7.606,-3.606 L -76.35,6.93 Z"
             style="fill:#f9de1c;fill-opacity:1;fill-rule:evenodd;stroke:none"
             id="path39487" />
        </g>
      </g>
    </g>
  </g>
</svg>
